# xmcd
#
# Track frame offsets:
#	150
#	15411
#	27167
#	45718
#	60650
#	78844
#	93689
#	109716
#	122484
#	138173
#	155760
#	173128
#
# Disc length: 2411 seconds
# Revision: 0
# Processed by: cddbd v1.5.2PL0 Copyright (c) Steve Scherf et al.
# Submitted via: dBpowerAMP V12.0
#
DISCID=8f09690c
DTITLE=The Bankesters - The Bankesters
DYEAR=2011
DGENRE=Country
TTITLE0=Sure As the Sun
TTITLE1=Get Right Or Get Left
TTITLE2=Dance To The St. Anne's Reel
TTITLE3=Give Me This Day
TTITLE4=That's What Livin's For
TTITLE5=I Will Not Forget You
TTITLE6=I Am the Man Thomas
TTITLE7=My Love Will Follow You
TTITLE8=Blow Out The Candle
TTITLE9=Watergrave
TTITLE10=When You Put Your Hand In Mine
TTITLE11=When You Put Your Hand In Mine (Reprise)
EXTD=
EXTT0=
EXTT1=
EXTT2=
EXTT3=
EXTT4=
EXTT5=
EXTT6=
EXTT7=
EXTT8=
EXTT9=
EXTT10=
EXTT11=
PLAYORDER=
